<svg width="17" height="16" viewBox="0 0 17 16" fill="none" xmlns="http://www.w3.org/2000/svg">
<g clip-path="url(#clip0_401_1581)">
<path fill-rule="evenodd" clip-rule="evenodd" d="M8.20003 0C3.67186 0 0 3.67233 0 8.20251C0 11.8267 2.34955 14.9013 5.6077 15.9859C6.01749 16.0618 6.16798 15.808 6.16798 15.5913C6.16798 15.3957 6.16033 14.7495 6.15686 14.0642C3.87554 14.5603 3.39417 13.0964 3.39417 13.0964C3.02116 12.1483 2.48371 11.8962 2.48371 11.8962C1.73975 11.3871 2.53979 11.3975 2.53979 11.3975C3.36323 11.4554 3.79682 12.2428 3.79682 12.2428C4.52817 13.4968 5.7151 13.1343 6.18303 12.9247C6.2566 12.3945 6.46915 12.0327 6.70363 11.8279C4.88233 11.6204 2.96765 10.9171 2.96765 7.77413C2.96765 6.87865 3.28799 6.14688 3.81258 5.57247C3.72743 5.36584 3.44677 4.5316 3.892 3.40175C3.892 3.40175 4.58058 3.18129 6.1476 4.24256C6.80164 4.06076 7.50315 3.96967 8.20003 3.96658C8.89691 3.96967 9.59894 4.06076 10.2543 4.24256C11.8194 3.18129 12.507 3.40175 12.507 3.40175C12.9534 4.5316 12.6726 5.36584 12.5874 5.57247C13.1132 6.14688 13.4313 6.87858 13.4313 7.77413C13.4313 10.9245 11.513 11.6183 9.68711 11.8213C9.9812 12.0759 10.2433 12.5751 10.2433 13.3403C10.2433 14.4378 10.2338 15.3211 10.2338 15.5913C10.2338 15.8096 10.3813 16.0654 10.7971 15.9848C14.0534 14.899 16.4 11.8254 16.4 8.20251C16.4 3.67233 12.7287 0 8.20003 0Z" fill="#0477F4"/>
<path d="M3.07516 11.6824C3.05729 11.7232 2.99356 11.7355 2.93565 11.7075C2.87659 11.6806 2.84339 11.6249 2.86255 11.5838C2.88011 11.5418 2.94383 11.53 3.00276 11.5583C3.06195 11.5851 3.09566 11.6413 3.07516 11.6824ZM3.47562 12.0436C3.4368 12.08 3.36089 12.0631 3.30936 12.0055C3.25611 11.9482 3.24615 11.8715 3.28554 11.8345C3.32558 11.7982 3.39919 11.8152 3.45257 11.8726C3.50582 11.9306 3.51617 12.0068 3.47556 12.0436L3.47562 12.0436ZM3.75036 12.5057C3.70043 12.5407 3.61883 12.5079 3.56846 12.4347C3.51859 12.3616 3.51859 12.2738 3.56954 12.2386C3.62011 12.2034 3.70043 12.2351 3.75151 12.3077C3.80131 12.3821 3.80131 12.4699 3.7503 12.5057L3.75036 12.5057ZM4.21493 13.0409C4.1703 13.0906 4.07529 13.0773 4.00569 13.0094C3.93457 12.9431 3.91471 12.8489 3.95947 12.7991C4.00461 12.7493 4.10019 12.7633 4.17029 12.8306C4.24098 12.8969 4.26256 12.9917 4.21499 13.0409H4.21493ZM4.81536 13.2216C4.79576 13.286 4.7042 13.3153 4.612 13.288C4.51993 13.2598 4.45966 13.1842 4.47824 13.1191C4.49739 13.0543 4.58933 13.0237 4.68223 13.053C4.77418 13.0811 4.83458 13.156 4.81542 13.2216H4.81536ZM5.49879 13.2982C5.50109 13.3661 5.42288 13.4224 5.32608 13.4236C5.22871 13.4258 5.14999 13.3708 5.14897 13.3041C5.14897 13.2356 5.22539 13.1798 5.3227 13.1782C5.41949 13.1762 5.49879 13.2308 5.49879 13.2982ZM6.1701 13.2722C6.18172 13.3384 6.11442 13.4065 6.01833 13.4245C5.92383 13.442 5.83636 13.4011 5.82429 13.3355C5.81255 13.2676 5.88112 13.1996 5.97542 13.182C6.07171 13.1651 6.15784 13.2049 6.1701 13.2722Z" fill="#A5A5A5"/>
</g>
<defs>
<clipPath id="clip0_401_1581">
<rect width="17" height="16" fill="white"/>
</clipPath>
</defs>
</svg>
